<?xml version="1.0" encoding="UTF-8"?><svg id="a" xmlns="http://www.w3.org/2000/svg" viewBox="0 0 340.49 100.78"><path d="M1.5,50.39C1.61,23.55,23.12,1.55,50.56,1.44c27.15-.1,49.08,22.01,48.96,49.45-.11,26.53-21.95,48.88-49.82,48.45C23.17,98.93,1.61,77.41,1.5,50.39Zm68.89-6.42l-13.25-1.98c1.59-5.37,3.02-10.67,4.78-15.85,.56-1.64,1.87-3.09,3.07-4.42,1.17-1.3,2.96-1.17,4.27,.04,.45,.42,.78,.96,1.2,1.41,.65,.71,1.23,1.53,2.01,2.05,1.43,.94,2.61,.23,2.91-1.44,.35-1.99-.79-3.06-2.25-3.88-2.9-1.62-5.96-1.54-8.97-.39-4.12,1.58-6.76,4.82-8.4,8.71-1.63,3.86-2.75,7.93-4.06,11.92-.2,.61-.29,1.07-1.12,.92-1.75-.31-3.52-.55-5.28-.8-2.6-.37-5.19-.74-7.93-1.13l-.42,3.72,13.65,2.12-1.78,7.46c-4.41-.61-8.69-1.21-13.08-1.81l-.47,3.67,12.7,1.97c-.04,.51-.01,.9-.1,1.27-1.36,5.71-2.7,11.42-4.12,17.11-.6,2.38-1.65,4.57-3.46,6.33-2.29,2.23-4.36,2.05-6.15-.58-.43-.64-.87-1.29-1.42-1.82-.94-.9-2.28-.99-2.91-.3-1.04,1.12-1.11,2.83,.04,3.85,.88,.77,1.91,1.51,3,1.87,3.65,1.2,7.04,.26,10.16-1.72,2.9-1.84,4.56-4.66,5.86-7.73,2.21-5.2,3.89-10.57,5.11-16.08,.22-1.01,.61-1.34,1.64-1.11,1.32,.28,2.67,.42,4.01,.62,2.67,.38,5.34,.76,8.09,1.14l1.03-3.67c-4.64-.69-9.12-1.36-13.66-2.03l1.56-7.53,12.75,1.76,1-3.64Z" style="fill:#008ffd;"/><path d="M155.76,52.48h-21.33v19.19h-7.59V28.42h30.18v6.25h-22.56v11.51h21.3v6.3Z" style="fill:#fff;"/><path d="M219.9,57.73h-23.83c-.22,4.2,3.38,8.43,7.5,8.63,1.73,.08,3.54-.24,5.21-.73,1-.29,2.12-1.09,2.6-1.98,.86-1.59,2.04-1.76,3.58-1.65,1.46,.1,2.94,.02,4.72,.02-.67,1.36-1.14,2.62-1.85,3.73-2.51,3.87-6.15,5.93-10.69,6.59-6.52,.95-12.82-1.92-16.09-7.42-4.13-6.96-2.9-16.9,2.57-22.08,7.06-6.7,22.2-6.05,25.66,7.94,.35,1.41,.46,2.89,.61,4.35,.08,.8,.01,1.61,.01,2.59Zm-7.42-5.31c.07-4.3-3.41-7.89-7.8-8.05-4.6-.18-8.45,3.38-8.67,8.05h16.46Z" style="fill:#fff;"/><path d="M257.44,55.65c.02-4.81,1.17-9.25,4.82-12.61,4.9-4.52,10.72-5.38,16.87-3.27,5.94,2.05,9.04,6.6,9.94,12.71,.44,3.02,.28,6.02-.55,8.96-1.78,6.32-7.27,10.68-13.86,10.99-5.77,.27-10.71-1.45-14.21-6.26-2.27-3.12-3.02-6.72-3.01-10.52Zm7.44-.05l-.31,.07c.49,2.01,.77,4.1,1.52,6,1.22,3.12,3.7,4.84,7.08,4.92,3.38,.08,5.95-1.48,7.33-4.55,1.98-4.38,1.98-8.86-.2-13.19-1.4-2.79-3.83-4.25-6.95-4.24-3.18,0-5.52,1.58-7,4.37-1.1,2.06-1.46,4.3-1.45,6.61Z" style="fill:#fff;"/><path d="M337.4,71.73h-7.11c0-.42,0-.83,0-1.24-.01-6.23-.02-12.45-.05-18.68,0-.84-.1-1.7-.27-2.53-.56-2.84-2.15-4.33-4.88-4.65-3.2-.37-5.92,1.05-7.18,3.77-.95,2.05-1.15,4.23-1.15,6.45,0,5.22,0,10.44,0,15.66v1.18h-7.1V39.53h7.08v4.33c1.94-3.09,4.54-4.63,7.76-4.96,4.31-.45,8.33,.13,10.97,4.13,1.43,2.16,1.94,4.64,1.96,7.17,.06,7.04,.02,14.08,.02,21.12,0,.11-.03,.22-.07,.42Z" style="fill:#fff;"/><path d="M254.1,50.45h-6.81c-.61-1.07-1.06-2.26-1.85-3.15-3.7-4.24-10.68-3.18-13.03,2.05-1.86,4.14-1.79,8.44,.05,12.59,1.45,3.26,4.24,4.72,8.01,4.49,3.28-.2,5.53-1.99,6.7-5.33,.05-.14,.1-.28,.15-.4h6.96c-.77,3.96-2.79,7.01-6.08,9.15-8.61,5.6-22.2,2.52-24.24-11.07-.68-4.52-.14-8.9,2.32-12.84,3.41-5.49,8.59-7.67,14.85-7.08,5.81,.55,10.03,3.57,12.23,9.1,.31,.77,.48,1.59,.74,2.49Z" style="fill:#fff;"/><path d="M175.93,28.39h7.03v43.28h-7.03V28.39Z" style="fill:#fff;"/><path d="M161.29,39.52h7.04v32.18h-7.04V39.52Z" style="fill:#fff;"/><path d="M295.02,39.5h7.01v32.2h-7.01V39.5Z" style="fill:#fff;"/><path d="M168.32,35.48h-7.05v-7.06h7.05v7.06Z" style="fill:#fff;"/><path d="M302.03,35.5h-7.01v-7.1h7.01v7.1Z" style="fill:#fff;"/></svg>